<svg xmlns="http://www.w3.org/2000/svg" viewBox="0 0 128 128">
  <defs>
    <linearGradient id="bg" x1="20" y1="16" x2="108" y2="114" gradientUnits="userSpaceOnUse">
      <stop stop-color="#ff7bb3"/>
      <stop offset="0.55" stop-color="#e32e7f"/>
      <stop offset="1" stop-color="#9a1458"/>
    </linearGradient>
    <linearGradient id="leaf" x1="21" y1="88" x2="56" y2="110" gradientUnits="userSpaceOnUse">
      <stop stop-color="#fff8fb"/>
      <stop offset="1" stop-color="#ffd2e4"/>
    </linearGradient>
    <filter id="shadow" x="-20%" y="-20%" width="140%" height="140%">
      <feDropShadow dx="0" dy="7" stdDeviation="7" flood-color="#7f2f55" flood-opacity="0.28"/>
    </filter>
  </defs>
  <rect x="9" y="9" width="110" height="110" rx="30" fill="url(#bg)"/>
  <path d="M24 92c13 10 31 13 45 7" fill="none" stroke="#fff4f8" stroke-width="6" stroke-linecap="round"/>
  <path d="M32 88c-3-14-1-25 6-34 10 7 15 18 11 32-6-6-11-10-17-13 6 7 10 13 12 20-4-1-8-2-12-5Z" fill="url(#leaf)"/>
  <path d="M49 92c-2-12 1-21 10-27 7 8 8 19 1 29-2-6-5-11-10-15 3 6 4 10 4 15-2 0-4-1-5-2Z" fill="url(#leaf)"/>
  <text x="64" y="82" text-anchor="middle" filter="url(#shadow)" font-family="Georgia, 'Times New Roman', serif" font-size="68" font-weight="700" fill="#fff">SS</text>
</svg>
